<svg width="33" height="34" viewBox="0 0 33 34" fill="none" xmlns="http://www.w3.org/2000/svg">
<path d="M4.81507 5.47913C-1.54773 11.8419 -1.54773 22.1581 4.81507 28.5209C11.1779 34.8837 21.494 34.8837 27.8568 28.5209C34.2196 22.1581 34.2196 11.8419 27.8568 5.47913C21.494 -0.883669 11.1779 -0.883669 4.81507 5.47913ZM24.2715 24.9356C19.8888 29.3183 12.7831 29.3183 8.40036 24.9356C4.01767 20.5529 4.01767 13.4471 8.40036 9.06443C12.7831 4.68173 19.8888 4.68173 24.2715 9.06443C28.6542 13.4471 28.6542 20.5529 24.2715 24.9356Z" fill="#F6F6F6"/>
<path d="M16.293 3.24358C16.293 1.84344 17.4348 0.688234 18.818 0.905228C21.3209 1.29787 23.7099 2.27089 25.7876 3.76081C28.5556 5.74573 30.632 8.54824 31.7247 11.7743C32.8175 15.0004 32.8717 18.4879 31.8797 21.7464C30.8877 25.0049 28.8995 27.8706 26.1944 29.9405C23.4894 32.0105 20.2037 33.1806 16.7992 33.2865C13.3947 33.3923 10.0427 32.4285 7.2143 30.5305C4.38595 28.6326 2.22353 25.8959 1.03108 22.7054C0.135996 20.3104 -0.17879 17.7501 0.0963854 15.2316C0.248463 13.8398 1.66194 13.0396 3.01341 13.4056C4.36489 13.7715 5.13263 15.1699 5.0787 16.569C5.02175 18.0467 5.25707 19.5295 5.78058 20.9303C6.60194 23.128 8.09141 25.013 10.0396 26.3203C11.9878 27.6276 14.2967 28.2914 16.6417 28.2185C18.9867 28.1456 21.2499 27.3396 23.1131 25.9139C24.9763 24.4881 26.3458 22.5142 27.0291 20.2697C27.7124 18.0253 27.675 15.6231 26.9224 13.401C26.1697 11.1789 24.7395 9.24848 22.8329 7.88127C21.6177 7.00985 20.2479 6.39514 18.8067 6.06391C17.4421 5.75028 16.293 4.64373 16.293 3.24358Z" fill="#459395"/>
</svg>
