<svg width="93" height="28" viewBox="0 0 93 28" fill="none" xmlns="http://www.w3.org/2000/svg">
<path d="M92.558 13.8957V16.0011H86.4727V13.8957H92.558ZM87.8542 11.4746H90.6567V20.896C90.6567 21.1547 90.6962 21.3565 90.7752 21.5013C90.8541 21.6416 90.9638 21.7403 91.1041 21.7973C91.2488 21.8543 91.4155 21.8828 91.6041 21.8828C91.7357 21.8828 91.8672 21.8719 91.9988 21.8499C92.1304 21.8236 92.2313 21.8039 92.3014 21.7907L92.7422 23.8763C92.6019 23.9202 92.4045 23.9706 92.1501 24.0276C91.8957 24.0891 91.5865 24.1263 91.2225 24.1395C90.5471 24.1658 89.955 24.0759 89.4463 23.8697C88.9419 23.6636 88.5494 23.3434 88.2687 22.9092C87.988 22.475 87.8498 21.9267 87.8542 21.2644V11.4746Z" fill="white"/>
<path d="M78.4276 18.1533V23.9956H75.625V10.5215H78.3486V15.673H78.467C78.6951 15.0765 79.0635 14.6093 79.5723 14.2716C80.081 13.9295 80.7192 13.7584 81.4867 13.7584C82.1884 13.7584 82.8002 13.9119 83.3221 14.219C83.8484 14.5216 84.2563 14.958 84.5458 15.5282C84.8396 16.094 84.9844 16.7717 84.98 17.5612V23.9956H82.1774V18.0612C82.1818 17.4384 82.0239 16.9537 81.7038 16.6072C81.388 16.2607 80.945 16.0875 80.3749 16.0875C79.9933 16.0875 79.6556 16.1686 79.3617 16.3309C79.0723 16.4932 78.8442 16.73 78.6775 17.0414C78.5153 17.3485 78.4319 17.7191 78.4276 18.1533Z" fill="white"/>
<path d="M68.4509 27.999C67.5431 27.999 66.7646 27.874 66.1155 27.624C65.4707 27.3784 64.9576 27.0428 64.576 26.6174C64.1945 26.1919 63.9467 25.7139 63.8326 25.1831L66.4247 24.8344C66.5036 25.0362 66.6286 25.2248 66.7997 25.4003C66.9707 25.5757 67.1966 25.7161 67.4773 25.8213C67.7623 25.931 68.1088 25.9858 68.5167 25.9858C69.1263 25.9858 69.6285 25.8367 70.0232 25.5384C70.4224 25.2445 70.6219 24.7511 70.6219 24.0581V22.2094H70.5035C70.3807 22.4901 70.1965 22.7554 69.9509 23.0054C69.7053 23.2554 69.3895 23.4594 69.0035 23.6173C68.6176 23.7752 68.1571 23.8541 67.622 23.8541C66.8632 23.8541 66.1725 23.6787 65.5497 23.3278C64.9313 22.9725 64.4379 22.4309 64.0695 21.7028C63.7054 20.9703 63.5234 20.0448 63.5234 18.9264C63.5234 17.7816 63.7098 16.8254 64.0826 16.0578C64.4554 15.2903 64.951 14.7157 65.5694 14.3341C66.1922 13.9525 66.8742 13.7617 67.6154 13.7617C68.1812 13.7617 68.6549 13.8582 69.0364 14.0512C69.418 14.2398 69.725 14.4767 69.9575 14.7618C70.1943 15.0425 70.3763 15.3188 70.5035 15.5907H70.6088V13.8933H73.3916V24.0976C73.3916 24.9573 73.181 25.6766 72.76 26.2555C72.339 26.8345 71.7556 27.2687 71.0101 27.5582C70.2688 27.8521 69.4158 27.999 68.4509 27.999ZM68.5101 21.7488C68.9619 21.7488 69.3434 21.637 69.6548 21.4133C69.9706 21.1852 70.2118 20.8606 70.3785 20.4396C70.5495 20.0141 70.6351 19.5053 70.6351 18.9132C70.6351 18.3211 70.5517 17.8079 70.3851 17.3737C70.2184 16.9351 69.9772 16.5951 69.6614 16.3539C69.3456 16.1127 68.9619 15.9921 68.5101 15.9921C68.0496 15.9921 67.6615 16.1171 67.3457 16.3671C67.0299 16.6127 66.7909 16.9548 66.6286 17.3934C66.4663 17.832 66.3852 18.3386 66.3852 18.9132C66.3852 19.4966 66.4663 20.001 66.6286 20.4264C66.7953 20.8475 67.0343 21.1742 67.3457 21.4067C67.6615 21.6348 68.0496 21.7488 68.5101 21.7488Z" fill="white"/>
<path d="M58.8514 23.9997V13.8942H61.6539V23.9997H58.8514ZM60.2592 12.5915C59.8426 12.5915 59.4851 12.4533 59.1869 12.177C58.893 11.8963 58.7461 11.5607 58.7461 11.1704C58.7461 10.7844 58.893 10.4533 59.1869 10.1769C59.4851 9.89622 59.8426 9.75586 60.2592 9.75586C60.6759 9.75586 61.0311 9.89622 61.325 10.1769C61.6232 10.4533 61.7723 10.7844 61.7723 11.1704C61.7723 11.5607 61.6232 11.8963 61.325 12.177C61.0311 12.4533 60.6759 12.5915 60.2592 12.5915Z" fill="white"/>
<path d="M56.6072 10.5215V23.9956H53.8047V10.5215H56.6072Z" fill="white"/>
<path d="M46.2266 23.9984V13.8928H48.9436V15.656H49.0488C49.2331 15.0288 49.5423 14.5551 49.9764 14.2349C50.4106 13.9103 50.9106 13.748 51.4764 13.748C51.6168 13.748 51.7681 13.7568 51.9303 13.7744C52.0926 13.7919 52.2352 13.816 52.358 13.8467V16.3337C52.2264 16.2942 52.0444 16.2591 51.8119 16.2284C51.5795 16.1977 51.3668 16.1823 51.1738 16.1823C50.7615 16.1823 50.3931 16.2723 50.0686 16.4521C49.7484 16.6275 49.494 16.8731 49.3054 17.1889C49.1212 17.5047 49.0291 17.8688 49.0291 18.2811V23.9984H46.2266Z" fill="white"/>
<path d="M39.4267 24.1963C38.4048 24.1963 37.521 23.9792 36.7754 23.5449C36.0342 23.1063 35.4619 22.4966 35.0584 21.7159C34.6549 20.9308 34.4531 20.0207 34.4531 18.9856C34.4531 17.9417 34.6549 17.0294 35.0584 16.2486C35.4619 15.4635 36.0342 14.8539 36.7754 14.4196C37.521 13.981 38.4048 13.7617 39.4267 13.7617C40.4486 13.7617 41.3301 13.981 42.0713 14.4196C42.8169 14.8539 43.3915 15.4635 43.795 16.2486C44.1984 17.0294 44.4002 17.9417 44.4002 18.9856C44.4002 20.0207 44.1984 20.9308 43.795 21.7159C43.3915 22.4966 42.8169 23.1063 42.0713 23.5449C41.3301 23.9792 40.4486 24.1963 39.4267 24.1963ZM39.4398 22.0251C39.9047 22.0251 40.2929 21.8936 40.6043 21.6304C40.9157 21.3628 41.1503 20.9988 41.3082 20.5383C41.4705 20.0777 41.5516 19.5536 41.5516 18.9658C41.5516 18.3781 41.4705 17.854 41.3082 17.3934C41.1503 16.9329 40.9157 16.5688 40.6043 16.3013C40.2929 16.0337 39.9047 15.8999 39.4398 15.8999C38.9705 15.8999 38.5758 16.0337 38.2556 16.3013C37.9399 16.5688 37.7008 16.9329 37.5386 17.3934C37.3807 17.854 37.3017 18.3781 37.3017 18.9658C37.3017 19.5536 37.3807 20.0777 37.5386 20.5383C37.7008 20.9988 37.9399 21.3628 38.2556 21.6304C38.5758 21.8936 38.9705 22.0251 39.4398 22.0251Z" fill="white"/>
<path d="M28.0673 24.1963C27.0454 24.1963 26.1616 23.9792 25.416 23.5449C24.6748 23.1063 24.1025 22.4966 23.699 21.7159C23.2955 20.9308 23.0938 20.0207 23.0938 18.9856C23.0938 17.9417 23.2955 17.0294 23.699 16.2486C24.1025 15.4635 24.6748 14.8539 25.416 14.4196C26.1616 13.981 27.0454 13.7617 28.0673 13.7617C29.0892 13.7617 29.9707 13.981 30.7119 14.4196C31.4575 14.8539 32.0321 15.4635 32.4356 16.2486C32.8391 17.0294 33.0408 17.9417 33.0408 18.9856C33.0408 20.0207 32.8391 20.9308 32.4356 21.7159C32.0321 22.4966 31.4575 23.1063 30.7119 23.5449C29.9707 23.9792 29.0892 24.1963 28.0673 24.1963ZM28.0804 22.0251C28.5453 22.0251 28.9335 21.8936 29.2449 21.6304C29.5563 21.3628 29.7909 20.9988 29.9488 20.5383C30.1111 20.0777 30.1922 19.5536 30.1922 18.9658C30.1922 18.3781 30.1111 17.854 29.9488 17.3934C29.7909 16.9329 29.5563 16.5688 29.2449 16.3013C28.9335 16.0337 28.5453 15.8999 28.0804 15.8999C27.6112 15.8999 27.2164 16.0337 26.8963 16.3013C26.5805 16.5688 26.3415 16.9329 26.1792 17.3934C26.0213 17.854 25.9423 18.3781 25.9423 18.9658C25.9423 19.5536 26.0213 20.0777 26.1792 20.5383C26.3415 20.9988 26.5805 21.3628 26.8963 21.6304C27.2164 21.8936 27.6112 22.0251 28.0804 22.0251Z" fill="white"/>
<path d="M0.37435 3.7435V0H11.1473C14.9463 0.40208 22.4693 3.39411 22.1698 12.1456C21.8704 20.8971 14.8354 23.695 11.3553 24H0V14.5165C0 13.1854 1.13692 12.0763 1.70537 11.688L8.56846 7.487C11.2028 9.40035 16.5296 13.2187 16.7626 13.1854C16.9955 13.1522 15.0572 14.5858 14.0589 15.3068L8.56846 11.4385L3.45234 14.8908V20.714H11.3553C11.6464 20.714 18.8839 19.5078 18.8839 12.1456C18.8839 6.25581 13.7262 4.09012 11.1473 3.7435H0.37435Z" fill="white"/>
<path d="M6.90625 14.8906H8.40365V16.388H6.90625V14.8906Z" fill="white"/>
<path d="M6.90625 16.804H8.40365V18.3014H6.90625V16.804Z" fill="white"/>
<path d="M8.81959 14.8906H10.317V16.388H8.81959V14.8906Z" fill="white"/>
<path d="M8.81959 16.804H10.317V18.3014H8.81959V16.804Z" fill="white"/>
</svg>
