<svg width="33" height="34" viewBox="0 0 33 34" fill="none" xmlns="http://www.w3.org/2000/svg">
<path d="M4.7721 5.47913C-1.5907 11.8419 -1.5907 22.1581 4.7721 28.5209C11.1349 34.8837 21.451 34.8837 27.8138 28.5209C34.1766 22.1581 34.1766 11.8419 27.8138 5.47913C21.451 -0.883669 11.1349 -0.883669 4.7721 5.47913ZM24.2285 24.9356C19.8458 29.3183 12.7401 29.3183 8.3574 24.9356C3.9747 20.5529 3.9747 13.4471 8.3574 9.06443C12.7401 4.68173 19.8458 4.68173 24.2285 9.06443C28.6112 13.4471 28.6112 20.5529 24.2285 24.9356Z" fill="#F6F6F6"/>
<path d="M16.25 3.24358C16.25 1.84343 17.3918 0.688234 18.775 0.905229C21.0842 1.26748 23.2986 2.12406 25.2623 3.4279C27.226 4.73175 28.8748 6.44023 30.1048 8.42784C30.8416 9.61846 30.22 11.1191 28.9296 11.6624C27.6392 12.2058 26.1734 11.5761 25.3548 10.4402C24.5688 9.34948 23.5891 8.40321 22.4577 7.65196C21.3262 6.90072 20.074 6.36504 18.7637 6.0639C17.3992 5.75028 16.25 4.64372 16.25 3.24358Z" fill="#EB7C69"/>
</svg>
