<svg width="33" height="34" viewBox="0 0 33 34" fill="none" xmlns="http://www.w3.org/2000/svg">
<path d="M4.7721 5.47913C-1.5907 11.8419 -1.5907 22.1581 4.7721 28.5209C11.1349 34.8837 21.451 34.8837 27.8138 28.5209C34.1766 22.1581 34.1766 11.8419 27.8138 5.47913C21.451 -0.883669 11.1349 -0.883669 4.7721 5.47913ZM24.2285 24.9356C19.8458 29.3183 12.7401 29.3183 8.3574 24.9356C3.9747 20.5529 3.9747 13.4471 8.3574 9.06443C12.7401 4.68173 19.8458 4.68173 24.2285 9.06443C28.6112 13.4471 28.6112 20.5529 24.2285 24.9356Z" fill="#F6F6F6"/>
<path d="M16.25 3.24358C16.25 1.84343 17.3918 0.688236 18.775 0.905228C20.8796 1.23538 22.9074 1.97644 24.7396 3.09501C27.2963 4.65583 29.3733 6.89128 30.7421 9.55566C32.111 12.2201 32.7189 15.2102 32.499 18.1976C32.3414 20.3385 31.763 22.4186 30.8058 24.3218C30.1768 25.5727 28.5727 25.8282 27.4345 25.0128C26.2962 24.1975 26.0658 22.6189 26.6055 21.327C27.0689 20.2174 27.3532 19.0355 27.4423 17.8253C27.5938 15.7676 27.1751 13.708 26.2322 11.8728C25.2893 10.0375 23.8587 8.49776 22.0977 7.42266C21.062 6.7904 19.9356 6.33324 18.7637 6.0639C17.3991 5.75028 16.25 4.64372 16.25 3.24358Z" fill="#FDA638"/>
</svg>
